<?xml version="1.0" standalone="no"?>
<!DOCTYPE svg PUBLIC "-//W3C//DTD SVG 20010904//EN"
 "http://www.w3.org/TR/2001/REC-SVG-20010904/DTD/svg10.dtd">
<svg version="1.0" xmlns="http://www.w3.org/2000/svg"
 width="612.000000pt" height="612.000000pt" viewBox="0 0 612.000000 612.000000"
 preserveAspectRatio="xMidYMid meet">

<g transform="translate(0.000000,612.000000) scale(0.100000,-0.100000)"
fill="#000000" stroke="none">
<path d="M2882 4583 c37 -40 71 -136 76 -210 4 -64 1 -79 -23 -128 -32 -66
-74 -98 -166 -124 -145 -41 -246 -120 -268 -207 -14 -53 -8 -90 22 -153 l22
-44 190 6 c353 11 708 77 800 149 27 21 27 24 23 104 -6 109 -45 191 -137 284
-94 96 -286 219 -476 305 -57 26 -75 31 -63 18z"/>
<path d="M3694 3849 c-27 -30 -148 -85 -239 -108 -115 -30 -303 -58 -505 -76
-424 -38 -479 -45 -545 -69 -168 -61 -239 -164 -197 -288 19 -60 19 -60 112
-25 88 33 267 62 535 87 553 50 703 71 812 112 136 50 203 116 203 197 0 53
-25 96 -87 151 -52 46 -63 48 -89 19z"/>
<path d="M3820 3489 c-74 -54 -155 -92 -301 -140 -219 -72 -480 -114 -1009
-164 -146 -14 -287 -30 -315 -36 -158 -36 -265 -143 -265 -264 0 -49 28 -120
63 -159 30 -34 39 -37 167 -61 196 -38 285 -41 480 -16 428 55 850 171 1124
307 135 68 210 119 288 195 l61 60 -6 58 c-2 31 -14 75 -25 97 -33 65 -152
165 -194 164 -7 -1 -38 -19 -68 -41z"/>
<path d="M4064 3058 c-153 -110 -413 -248 -604 -321 -130 -50 -324 -104 -450
-127 l-105 -18 125 -1 c350 -2 885 94 1021 183 30 20 39 35 54 88 17 57 34
238 23 238 -3 0 -31 -19 -64 -42z"/>
<path d="M4095 2701 c-189 -92 -488 -165 -775 -191 -147 -13 -466 -13 -640 0
-254 19 -508 63 -718 126 -22 6 -22 5 8 -46 153 -259 254 -574 276 -863 l7
-88 40 -21 c121 -61 310 -96 572 -105 353 -12 803 44 970 121 l52 23 7 93 c20
265 122 658 231 887 25 53 44 97 43 97 -2 1 -34 -14 -73 -33z m-1695 -331 c72
-142 120 -370 105 -494 -11 -92 -17 -127 -21 -123 -2 2 -11 62 -19 133 -22
182 -65 399 -111 547 -12 40 8 12 46 -63z m1360 -42 c-37 -141 -78 -371 -86
-481 -4 -48 -10 -90 -15 -92 -14 -9 -22 104 -16 229 5 128 32 244 83 356 27
59 54 104 59 98 2 -1 -10 -51 -25 -110z m-236 -3 c-42 -157 -77 -351 -100
-550 -8 -74 -19 -53 -29 57 -9 91 8 231 41 346 22 75 100 249 109 241 2 -2 -8
-44 -21 -94z m-840 18 c75 -151 112 -327 103 -498 -7 -140 -22 -164 -31 -50
-11 130 -42 310 -81 466 -19 76 -35 140 -35 143 0 18 14 -2 44 -61z m401 -53
c23 -142 30 -357 15 -477 -18 -151 -28 -140 -51 57 -16 138 -3 537 17 517 2
-1 10 -45 19 -97z"/>
</g>
</svg>
